<svg width="28" height="25" xmlns="http://www.w3.org/2000/svg" xmlns:xlink="http://www.w3.org/1999/xlink"><defs><filter x="-13%" y="-14.6%" width="125.9%" height="129.2%" filterUnits="objectBoundingBox" id="a"><feOffset in="SourceAlpha" result="shadowOffsetOuter1"/><feGaussianBlur stdDeviation="1" in="shadowOffsetOuter1" result="shadowBlurOuter1"/><feComposite in="shadowBlurOuter1" in2="SourceAlpha" operator="out" result="shadowBlurOuter1"/><feColorMatrix values="0 0 0 0 0 0 0 0 0 0 0 0 0 0 0 0 0 0 0.7 0" in="shadowBlurOuter1"/></filter><path d="M24.673 6.834a5.751 5.751 0 00-8.145 0L15 8.364l-1.528-1.53a5.75 5.75 0 00-8.145 0 6.505 6.505 0 000 9.185L15 25.714l9.673-9.695a6.506 6.506 0 000-9.185z" id="b"/></defs><g fill="none" fill-rule="evenodd"><path d="M-1-3h30v30H-1z"/><g transform="translate(-1 -3)"><use fill="#000" filter="url(#a)" xlink:href="#b"/><use fill="#F43E36" xlink:href="#b"/><path stroke="#FFF" stroke-width="1.563" d="M15 24.608l-9.12-9.141a5.724 5.724 0 010-8.081 4.97 4.97 0 017.039 0l1.528 1.53.553.555.553-.554 1.528-1.531a4.97 4.97 0 017.04 0h0a5.724 5.724 0 010 8.081L15 24.607z"/></g></g></svg>