<svg width="20" height="17" xmlns="http://www.w3.org/2000/svg"><g fill="none" fill-rule="evenodd"><path d="M-5-7h30v30H-5z"/><path d="M20 1.968a8.043 8.043 0 01-2.356.662A4.203 4.203 0 0019.448.307a8.154 8.154 0 01-2.607 1.02A4.047 4.047 0 0013.846 0C11.58 0 9.743 1.881 9.743 4.2c0 .33.036.65.106.958C6.44 4.983 3.417 3.31 1.393.768A4.247 4.247 0 00.84 2.88c0 1.458.724 2.744 1.824 3.496A4.03 4.03 0 01.805 5.85v.053c0 2.035 1.415 3.733 3.29 4.12a4.064 4.064 0 01-1.08.147 3.86 3.86 0 01-.773-.078c.522 1.67 2.037 2.884 3.832 2.918A8.11 8.11 0 010 14.747a11.4 11.4 0 006.289 1.89c7.547 0 11.673-6.402 11.673-11.954l-.014-.544A8.304 8.304 0 0020 1.97z" fill="#010002"/></g></svg>