
<svg width="17" height="15" xmlns="http://www.w3.org/2000/svg"><g fill="none" fill-rule="evenodd"><path d="M-4-5h25v25H-4z"/><path d="M13.648 14.867a.68.68 0 01-.377-.114l-4.263-2.835-2.286 1.613a.683.683 0 01-.619.085.663.663 0 01-.422-.45L4.533 8.9.431 7.362A.659.659 0 010 6.752a.658.658 0 01.423-.616L16.019.052a.683.683 0 01.768.173.649.649 0 01.152.565l-2.632 13.542a.66.66 0 01-.402.484.682.682 0 01-.257.05zm-4.266-4.29l3.797 2.525 2.049-10.537-7.399 6.98 1.536 1.02a.368.368 0 01.017.012zm-3.16-.561l.508 1.888 1.095-.772-1.434-.954a.663.663 0 01-.17-.162zm-3.705-3.28L5.334 7.79a.663.663 0 01.41.447L6.1 9.565a.653.653 0 01.202-.406l7.05-6.65L2.517 6.735z" fill="currentColor"/></g></svg>
